<svg version="1.1" xmlns="http://www.w3.org/2000/svg" xmlns:xlink="http://www.w3.org/1999/xlink" x="0px" y="0px"
	 viewBox="0 0 994.5 292" style="enable-background:new 0 0 994.5 292;" xml:space="preserve">
<g>
	<path fill="#FFF" d="M517,137.8c14.8,9.4,22.1,23.8,22.1,43.1c0,14-4.3,25.8-13,35.4c-9.4,10.6-22,16-37.9,16H312.8V45.8H485
		c15.9,0,28.6,5.3,37.9,16c8.4,9.6,12.6,21.5,12.6,35.4C535.6,114.6,529.4,128.1,517,137.8L517,137.8z M485,117.3
		c6.1,0,9.1-4.7,9.1-14c0-9.3-3-14-9.1-14H355v27.9H485L485,117.3z M487.8,188.8c6.1,0,9.1-4.7,9.1-14c0-9.3-3-14-9.1-14H355v27.9
		H487.8L487.8,188.8z M786.8,232.3h-42.2V118.7l-75.2,110.6l-75.2-110.6v113.5h-42.2V45.8h44.3l73.1,107.7l73.4-107.7h43.9V232.3
		L786.8,232.3z M994.3,232.6l-189.9-0.4v-43.5l123.3-99.4H804.4V45.8h190.1l-0.3,42.5L872.5,189.1l121.7,0.1V232.6z M350,292h-7.1
		v-9.7h-18.8v-7.1h18.8v-4.3c0-1.5-0.5-2.3-1.5-2.3h-20.2c-1,0-1.5,0.8-1.5,2.3V292h-7.1v-21.1c0-2.6,0.8-4.8,2.4-6.7
		c1.6-1.9,3.7-2.8,6.2-2.8h20.2c2.6,0,4.7,0.9,6.3,2.8c1.6,1.9,2.4,4.1,2.4,6.7V292L350,292z M412.7,282.5c0,2.6-0.8,4.8-2.4,6.7
		c-1.6,1.9-3.7,2.8-6.2,2.8h-20.2c-2.6,0-4.7-0.9-6.3-2.8c-1.6-1.9-2.4-4.1-2.4-6.7v-21.1h7.1v21.1c0,1.5,0.5,2.3,1.5,2.3h20.3
		c1,0,1.5-0.8,1.5-2.3v-21.1h7.1V282.5L412.7,282.5z M472.5,268.5h-13.8V292h-7.1v-23.4h-13.8v-7.1h34.7V268.5L472.5,268.5z
		 M535.1,282.3c0,2.8-1,5.1-2.9,6.9c-1.9,1.8-4.3,2.8-7.1,2.8h-18c-2.8,0-5.1-0.9-7.1-2.8c-1.9-1.8-2.9-4.2-2.9-6.9v-11.2
		c0-2.8,1-5.1,2.9-6.9c1.9-1.8,4.3-2.8,7.1-2.8h18c2.8,0,5.1,0.9,7.1,2.8c1.9,1.8,2.9,4.2,2.9,6.9V282.3L535.1,282.3z M528,282.3
		v-11.2c0-1.7-1-2.5-2.9-2.5h-18c-1.9,0-2.9,0.9-2.9,2.5v11.2c0,1.7,1,2.5,2.9,2.5h18C527,284.8,528,284,528,282.3L528,282.3z
		 M624.5,276.5c2.5,1.5,3.7,3.9,3.7,7.1c0,2.3-0.7,4.2-2.2,5.8c-1.6,1.7-3.7,2.6-6.4,2.6H590v-30.6h29.1c2.7,0,4.8,0.9,6.4,2.6
		c1.4,1.6,2.1,3.5,2.1,5.8C627.7,272.7,626.6,274.9,624.5,276.5L624.5,276.5z M619.1,273.1c1,0,1.5-0.8,1.5-2.3
		c0-1.5-0.5-2.3-1.5-2.3h-22v4.6H619.1L619.1,273.1z M619.6,284.8c1,0,1.5-0.8,1.5-2.3c0-1.5-0.5-2.3-1.5-2.3h-22.5v4.6H619.6
		L619.6,284.8z M688.5,292h-9.8l-15.3-17.1h18.4c1.3,0,2-1.1,2-3.2c0-2.1-0.7-3.2-2-3.2h-22.1V292h-7.1v-30.6h29.7
		c2.7,0,4.9,1.1,6.5,3.2c1.5,1.9,2.2,4.3,2.2,7.1c0,2.8-0.7,5.1-2.2,7.1c-1.6,2.1-3.7,3.2-6.5,3.2h-2.7L688.5,292L688.5,292z
		 M754,282.3c0,2.8-1,5.1-2.9,6.9c-1.9,1.8-4.3,2.8-7.1,2.8h-18c-2.8,0-5.1-0.9-7.1-2.8c-1.9-1.8-2.9-4.2-2.9-6.9v-11.2
		c0-2.8,1-5.1,2.9-6.9c1.9-1.8,4.3-2.8,7.1-2.8h18c2.8,0,5.1,0.9,7.1,2.8c1.9,1.8,2.9,4.2,2.9,6.9V282.3L754,282.3z M746.8,282.3
		v-11.2c0-1.7-1-2.5-2.9-2.5h-18c-1.9,0-2.9,0.9-2.9,2.5v11.2c0,1.7,1,2.5,2.9,2.5h18C745.9,284.8,746.8,284,746.8,282.3
		L746.8,282.3z M812.3,292h-9.8l-11.8-11.7h-4.6V292h-7.1v-30.6h7.1v11.8h4.4l11.1-11.8h9.8l-14.6,15.3L812.3,292L812.3,292z
		 M869.1,268.5h-25.5v4.6h23.9v7.1h-23.9v4.6H869v7.1h-32.6v-30.6h32.7V268.5L869.1,268.5z M930.1,292h-9.8l-15.3-17.1h18.4
		c1.3,0,2-1.1,2-3.2c0-2.1-0.7-3.2-2-3.2h-22.1V292h-7.1v-30.6h29.7c2.7,0,4.9,1.1,6.5,3.2c1.5,1.9,2.2,4.3,2.2,7.1
		c0,2.8-0.7,5.1-2.2,7.1c-1.6,2.1-3.7,3.2-6.5,3.2h-2.7L930.1,292L930.1,292z M994.1,282.5c0,2.6-0.8,4.8-2.3,6.6
		c-1.7,1.9-3.8,2.8-6.3,2.8h-26.4v-7.1h26.4c1,0,1.5-0.8,1.5-2.3c0-1.5-0.5-2.3-1.5-2.3h-19.2c-2.5,0-4.6-1-6.3-2.9
		c-1.6-1.8-2.4-4-2.4-6.5c0-2.6,0.8-4.8,2.4-6.7c1.6-1.9,3.7-2.8,6.2-2.8h26.4v7.1h-26.5c-1,0-1.5,0.8-1.5,2.3
		c0,1.5,0.5,2.3,1.5,2.3h19.3c2.5,0,4.6,1,6.3,2.8C993.4,277.8,994.1,280,994.1,282.5z"/>
	<g>
		<polygon fill="#FFF" points="0,47.7 18.3,136.2 131.7,128 132.5,128.9 131.7,128.1 139.9,11.9 148.2,128 148.3,128 261,136.1 
			278.6,46.9 138.9,0 0,47.7 		"/>
		<polygon fill="#FFF" points="18.4,136.6 29.4,189.5 139.7,288.4 250.5,189.5 260.9,136.6 148.2,144.6 147.4,143.8 148.2,144.6 
			139.9,260.7 131.7,144.6 18.4,136.6 		"/>
	</g>
</g>
</svg>
