<svg version="1.1" xmlns="http://www.w3.org/2000/svg" xmlns:xlink="http://www.w3.org/1999/xlink" x="0px" y="0px"
	 viewBox="0 0 269.1 211.9" style="enable-background:new 0 0 269.1 211.9;" xml:space="preserve">
<style type="text/css">
	.st0{fill-rule:evenodd;clip-rule:evenodd;fill:#1B5497;}
</style>
<path d="M93.1,33.4l6.1,29.4l37.7-2.7l0.3,0.3l-0.3-0.3l2.7-38.6l2.8,38.6l0,0l37.5,2.7l5.8-29.7l-46.5-15.6L93.1,33.4 L93.1,33.4z M99.2,62.9l3.7,17.6l36.7,32.9l36.8-32.9l3.5-17.6l-37.5,2.6l-0.3-0.3l0.3,0.3l-2.8,38.6l-2.7-38.6L99.2,62.9L99.2,62.9 z M91.8,194.4h-1.9v-5l-3.4,4.8l-3.4-4.8v5h-1.9v-8.2h2l3.3,4.7l3.3-4.7h2V194.4L91.8,194.4z M112.1,191.8c0,0.7-0.3,1.4-0.8,1.8 c-0.5,0.5-1.1,0.7-1.9,0.7h-4.8c-0.7,0-1.4-0.2-1.9-0.7c-0.5-0.5-0.8-1.1-0.8-1.8v-3c0-0.7,0.3-1.4,0.8-1.8c0.5-0.5,1.1-0.7,1.9-0.7 h4.8c0.7,0,1.4,0.2,1.9,0.7c0.5,0.5,0.8,1.1,0.8,1.8V191.8L112.1,191.8z M110.2,191.8v-3c0-0.5-0.3-0.7-0.8-0.7h-4.8 c-0.5,0-0.8,0.2-0.8,0.7v3c0,0.5,0.3,0.7,0.8,0.7h4.8C110,192.5,110.2,192.3,110.2,191.8L110.2,191.8z M131.6,188.1H128v6.3h-1.9 v-6.3h-3.7v-1.9h9.3V188.1L131.6,188.1z M151.9,191.8c0,0.7-0.3,1.4-0.8,1.8c-0.5,0.5-1.1,0.7-1.9,0.7h-4.8c-0.7,0-1.4-0.2-1.9-0.7 c-0.5-0.5-0.8-1.1-0.8-1.8v-3c0-0.7,0.3-1.4,0.8-1.8c0.5-0.5,1.1-0.7,1.9-0.7h4.8c0.7,0,1.4,0.2,1.9,0.7c0.5,0.5,0.8,1.1,0.8,1.8 V191.8L151.9,191.8z M150,191.8v-3c0-0.5-0.3-0.7-0.8-0.7h-4.8c-0.5,0-0.8,0.2-0.8,0.7v3c0,0.5,0.3,0.7,0.8,0.7h4.8 C149.7,192.5,150,192.3,150,191.8L150,191.8z M171.7,194.4h-2.6l-4.1-4.6h4.9c0.3,0,0.5-0.3,0.5-0.8c0-0.6-0.2-0.8-0.5-0.8H164v6.3 h-1.9v-8.2h7.9c0.7,0,1.3,0.3,1.7,0.9c0.4,0.5,0.6,1.1,0.6,1.9c0,0.7-0.2,1.4-0.6,1.9c-0.4,0.6-1,0.9-1.7,0.9h-0.7L171.7,194.4 L171.7,194.4z M192.4,191.9c0,0.7-0.2,1.3-0.6,1.8c-0.4,0.5-1,0.8-1.7,0.8H183v-1.9h7.1c0.3,0,0.4-0.2,0.4-0.6 c0-0.4-0.1-0.6-0.4-0.6h-5.1c-0.7,0-1.2-0.3-1.7-0.8c-0.4-0.5-0.6-1.1-0.6-1.7c0-0.7,0.2-1.3,0.7-1.8c0.4-0.5,1-0.7,1.7-0.7h7v1.9 h-7.1c-0.3,0-0.4,0.2-0.4,0.6c0,0.4,0.1,0.6,0.4,0.6h5.1c0.7,0,1.2,0.3,1.7,0.8C192.2,190.6,192.4,191.2,192.4,191.9L192.4,191.9z M89.7,142.6c4.8,3.1,7.3,7.8,7.3,14.1c0,4.6-1.4,8.5-4.3,11.6c-3.1,3.5-7.2,5.2-12.4,5.2H22.8v-61.1h56.5c5.2,0,9.4,1.7,12.4,5.2 c2.8,3.2,4.1,7,4.1,11.6C95.8,135,93.8,139.4,89.7,142.6L89.7,142.6z M79.2,135.9c2,0,3-1.5,3-4.6c0-3.1-1-4.6-3-4.6H36.6v9.2H79.2 L79.2,135.9z M80.2,159.3c2,0,3-1.5,3-4.6c0-3.1-1-4.6-3-4.6H36.6v9.2H80.2L80.2,159.3z M178.2,173.6h-13.8v-37.2l-24.7,36.3 l-24.7-36.3v37.2h-13.8v-61.1h14.5l24,35.3l24.1-35.3h14.4V173.6L178.2,173.6z M246.2,173.7l-62.3-0.1v-14.3l40.4-32.6H184v-14.3 h62.3l-0.1,13.9l-39.9,33.1l39.9,0V173.7z"/>
</svg>
