<svg version="1.1" id="Layer_1" xmlns="http://www.w3.org/2000/svg" xmlns:xlink="http://www.w3.org/1999/xlink" x="0px" y="0px"
	 viewBox="0 0 313 124" style="enable-background:new 0 0 313 124;" xml:space="preserve">
<path style="fill:#B7C8D1;" d="M55.9,11.8l43.2,14.4c2.5,0.8,3.9,3.3,3.4,5.8l0,0l-9.1,44.6c-0.2,1.2-0.9,2.2-1.7,2.9l-33.9,30.1
	c-1.9,1.7-4.8,1.7-6.7,0l-34-30.2c-0.9-0.8-1.4-1.7-1.6-2.8l0,0L6.2,32c-0.5-2.6,1-5.1,3.6-5.9l43-14.3
	C53.8,11.5,54.9,11.5,55.9,11.8L55.9,11.8z"/>
<polygon style="fill:#0D7BB1;" points="54.3,14.4 54.5,14.4 54.5,107.9 54.3,108.1 18.5,76.3 8.9,29.5 "/>
<polygon style="fill:#1E6196;" points="54.5,14.4 99.7,29.5 90.1,76.3 54.5,107.9 "/>
<path style="fill:#0D5C9C;" d="M248.6,73.8h-11.1v-29L217.7,73L198,44.8v29h-11.1V26.2h11.6l19.2,27.4L237,26.2h11.5V73.8z
	 M182.2,73.8h-11.1V58.6H142V47.6h29.2v-6.7c0-2.4-0.8-3.6-2.4-3.6h-31.4c-1.5,0-2.3,1.2-2.3,3.6v32.9h-11.1V40.9
	c0-4,1.2-7.5,3.7-10.3c2.5-2.9,5.7-4.3,9.7-4.3h31.4c4,0,7.3,1.4,9.7,4.3c2.5,2.9,3.7,6.3,3.7,10.3V73.8z M305.5,73.8h-36.8
	c-4.3,0-8-1.4-11-4.3c-3-2.9-4.5-6.5-4.5-10.8V41.3c0-4.3,1.5-7.9,4.5-10.8c3-2.9,6.7-4.3,11-4.3h36.8v11.1h-36.8
	c-3,0-4.4,1.3-4.4,4v17.5c0,2.6,1.5,4,4.4,4h25.7v-7.2h-15.1V44.4h26.1V73.8z"/>
<text transform="matrix(1 0 0 1 123.332 96.2594)" style="fill:#0D5C9C; font-family:'NexaBold'; font-size:25.7224px; letter-spacing:2;">auto brokers</text>
</svg>
