<svg version="1.1" xmlns="http://www.w3.org/2000/svg" xmlns:xlink="http://www.w3.org/1999/xlink" x="0px" y="0px"
	 viewBox="0 0 269.1 211.9" style="enable-background:new 0 0 269.1 211.9;" xml:space="preserve">
<style type="text/css">
	.st0{fill-rule:evenodd;clip-rule:evenodd;fill:#FFFFFF;}
</style>
<path class="st0" d="M246.2,172.9l-62.3-0.1v-14.3l40.4-32.6H184v-14.3h62.3l-0.1,13.9l-39.9,33.1l39.9,0V172.9L246.2,172.9z
	 M178.2,172.8h-13.8v-37.2l-24.7,36.3l-24.7-36.3v37.2h-13.8v-61.1h14.5l24,35.3l24.1-35.3h14.4V172.8L178.2,172.8z M80.2,158.5
	c2,0,3-1.5,3-4.6c0-3.1-1-4.6-3-4.6H36.6v9.2H80.2L80.2,158.5z M79.2,135.1c2,0,3-1.5,3-4.6c0-3.1-1-4.6-3-4.6H36.6v9.2H79.2
	L79.2,135.1z M89.7,141.8c4.8,3.1,7.3,7.8,7.3,14.1c0,4.6-1.4,8.5-4.3,11.6c-3.1,3.5-7.2,5.2-12.4,5.2H22.8v-61.1h56.5
	c5.2,0,9.4,1.7,12.4,5.2c2.8,3.2,4.1,7,4.1,11.6C95.8,134.2,93.8,138.6,89.7,141.8L89.7,141.8z M99.2,62.2l37.7,2.7l2.7,38.6
	l2.8-38.6l-0.3-0.3l0.3,0.3l37.5-2.6l-3.5,17.6l-36.8,32.9l-36.7-32.9L99.2,62.2L99.2,62.2z M93.1,32.6l46.2-15.9l46.5,15.6
	L179.9,62l-37.5-2.7l0,0l-2.8-38.6l-2.7,38.6l0.3,0.3l-0.3-0.3L99.2,62L93.1,32.6L93.1,32.6z M54.4,195.2h-1.9v-2.6h-5v-1.9h5v-1.1
	c0-0.4-0.1-0.6-0.4-0.6h-5.3c-0.3,0-0.4,0.2-0.4,0.6v5.6h-1.9v-5.6c0-0.7,0.2-1.3,0.6-1.8c0.4-0.5,1-0.7,1.6-0.7h5.3
	c0.7,0,1.2,0.2,1.7,0.7c0.4,0.5,0.6,1.1,0.6,1.8V195.2L54.4,195.2z M70.9,192.7c0,0.7-0.2,1.3-0.6,1.8c-0.4,0.5-1,0.7-1.7,0.7h-5.3
	c-0.7,0-1.2-0.2-1.7-0.7c-0.4-0.5-0.6-1.1-0.6-1.8v-5.6h1.9v5.6c0,0.4,0.1,0.6,0.4,0.6h5.4c0.3,0,0.4-0.2,0.4-0.6v-5.6h1.9V192.7
	L70.9,192.7z M86.7,189h-3.6v6.2h-1.9V189h-3.6v-1.9h9.2V189L86.7,189z M103.3,192.6c0,0.7-0.3,1.3-0.8,1.8
	c-0.5,0.5-1.1,0.7-1.9,0.7h-4.7c-0.7,0-1.4-0.2-1.9-0.7c-0.5-0.5-0.8-1.1-0.8-1.8v-3c0-0.7,0.3-1.3,0.8-1.8c0.5-0.5,1.1-0.7,1.9-0.7
	h4.7c0.7,0,1.4,0.2,1.9,0.7c0.5,0.5,0.8,1.1,0.8,1.8V192.6L103.3,192.6z M101.4,192.6v-3c0-0.4-0.3-0.7-0.8-0.7h-4.7
	c-0.5,0-0.8,0.2-0.8,0.7v3c0,0.4,0.3,0.7,0.8,0.7h4.7C101.2,193.3,101.4,193,101.4,192.6L101.4,192.6z M126.9,191.1
	c0.7,0.4,1,1,1,1.9c0,0.6-0.2,1.1-0.6,1.5c-0.4,0.5-1,0.7-1.7,0.7h-7.8v-8.1h7.7c0.7,0,1.3,0.2,1.7,0.7c0.4,0.4,0.6,0.9,0.6,1.5
	C127.8,190.1,127.5,190.6,126.9,191.1L126.9,191.1z M125.5,190.2c0.3,0,0.4-0.2,0.4-0.6c0-0.4-0.1-0.6-0.4-0.6h-5.8v1.2H125.5
	L125.5,190.2z M125.6,193.3c0.3,0,0.4-0.2,0.4-0.6c0-0.4-0.1-0.6-0.4-0.6h-5.9v1.2H125.6L125.6,193.3z M143.8,195.2h-2.6l-4-4.5h4.9
	c0.3,0,0.5-0.3,0.5-0.8c0-0.6-0.2-0.8-0.5-0.8h-5.8v6.2h-1.9v-8.1h7.8c0.7,0,1.3,0.3,1.7,0.8c0.4,0.5,0.6,1.1,0.6,1.9
	c0,0.7-0.2,1.4-0.6,1.9c-0.4,0.6-1,0.8-1.7,0.8h-0.7L143.8,195.2L143.8,195.2z M161.2,192.6c0,0.7-0.3,1.3-0.8,1.8
	c-0.5,0.5-1.1,0.7-1.9,0.7h-4.7c-0.7,0-1.4-0.2-1.9-0.7c-0.5-0.5-0.8-1.1-0.8-1.8v-3c0-0.7,0.3-1.3,0.8-1.8c0.5-0.5,1.1-0.7,1.9-0.7
	h4.7c0.7,0,1.4,0.2,1.9,0.7c0.5,0.5,0.8,1.1,0.8,1.8V192.6L161.2,192.6z M159.3,192.6v-3c0-0.4-0.3-0.7-0.8-0.7h-4.7
	c-0.5,0-0.8,0.2-0.8,0.7v3c0,0.4,0.3,0.7,0.8,0.7h4.7C159,193.3,159.3,193,159.3,192.6L159.3,192.6z M176.6,195.2H174l-3.1-3.1h-1.2
	v3.1h-1.9v-8.1h1.9v3.1h1.2l2.9-3.1h2.6l-3.9,4L176.6,195.2L176.6,195.2z M191.6,189h-6.7v1.2h6.3v1.9h-6.3v1.2h6.7v1.9H183v-8.1
	h8.6V189L191.6,189z M207.7,195.2h-2.6l-4-4.5h4.9c0.3,0,0.5-0.3,0.5-0.8c0-0.6-0.2-0.8-0.5-0.8h-5.8v6.2h-1.9v-8.1h7.8
	c0.7,0,1.3,0.3,1.7,0.8c0.4,0.5,0.6,1.1,0.6,1.9c0,0.7-0.2,1.4-0.6,1.9c-0.4,0.6-1,0.8-1.7,0.8h-0.7L207.7,195.2L207.7,195.2z
	 M224.7,192.7c0,0.7-0.2,1.3-0.6,1.7c-0.4,0.5-1,0.8-1.7,0.8h-7v-1.9h7c0.3,0,0.4-0.2,0.4-0.6c0-0.4-0.1-0.6-0.4-0.6h-5.1
	c-0.7,0-1.2-0.3-1.7-0.8c-0.4-0.5-0.6-1-0.6-1.7c0-0.7,0.2-1.3,0.6-1.8c0.4-0.5,1-0.7,1.7-0.7h7v1.9h-7c-0.3,0-0.4,0.2-0.4,0.6
	c0,0.4,0.1,0.6,0.4,0.6h5.1c0.7,0,1.2,0.3,1.7,0.8C224.5,191.4,224.7,192,224.7,192.7z"/>
</svg>
