<?xml version="1.0" encoding="utf-8"?>
<!-- Generator: Adobe Illustrator 22.1.0, SVG Export Plug-In . SVG Version: 6.00 Build 0)  -->
<svg version="1.1" id="Layer_1" xmlns="http://www.w3.org/2000/svg" xmlns:xlink="http://www.w3.org/1999/xlink" x="0px" y="0px"
	 viewBox="0 0 44.7 50" style="enable-background:new 0 0 44.7 50;" xml:space="preserve">
<g>
	<path style="fill:none;stroke:#145F93;stroke-width:2;stroke-linecap:round;stroke-linejoin:round;stroke-miterlimit:10;" d="
		M35.4,17.5c-2.8-2.8-6.6-4.7-10.7-5.3c-0.8-0.1-1.5-0.2-2.3-0.2c-0.8,0-1.6,0-2.3,0.2c-4.2,0.5-7.9,2.4-10.7,5.3
		c-3.3,3.3-5.4,8-5.4,13c0,5.1,2.1,9.7,5.4,13c3.3,3.3,8,5.4,13,5.4c5.1,0,9.7-2.1,13-5.4c3.3-3.3,5.4-7.9,5.4-13
		C40.8,25.5,38.7,20.8,35.4,17.5z M21.7,33c-0.9-0.2-1.6-0.9-1.8-1.8c-0.4-1.7,0.8-3.1,2.4-3.1c0.2,0,0.4,0,0.6,0.1
		c0.9,0.2,1.6,0.9,1.8,1.8c0,0.2,0.1,0.4,0.1,0.6C24.9,32.2,23.4,33.4,21.7,33z"/>
	<g>
		<path style="fill:none;stroke:#145F93;stroke-width:2;stroke-linecap:round;stroke-linejoin:round;stroke-miterlimit:10;" d="
			M24.9,30.6c0,1.6-1.5,2.8-3.1,2.4c-0.9-0.2-1.6-0.9-1.8-1.8c-0.4-1.7,0.8-3.1,2.4-3.1c0.2,0,0.4,0,0.6,0.1
			c0.9,0.2,1.6,0.9,1.8,1.8C24.8,30.1,24.9,30.4,24.9,30.6z"/>
		<path style="fill:none;stroke:#145F93;stroke-width:2;stroke-linecap:round;stroke-linejoin:round;stroke-miterlimit:10;" d="
			M24.9,30.6c0,1.6-1.5,2.8-3.1,2.4c-0.9-0.2-1.6-0.9-1.8-1.8c-0.4-1.7,0.8-3.1,2.4-3.1c0.2,0,0.4,0,0.6,0.1
			c0.9,0.2,1.6,0.9,1.8,1.8C24.8,30.1,24.9,30.4,24.9,30.6z"/>
		
			<line style="fill:none;stroke:#145F93;stroke-width:2;stroke-linecap:round;stroke-linejoin:round;stroke-miterlimit:10;" x1="29.5" y1="30.6" x2="24.8" y2="30.6"/>
		
			<line style="fill:none;stroke:#145F93;stroke-width:2;stroke-linecap:round;stroke-linejoin:round;stroke-miterlimit:10;" x1="22.3" y1="28.1" x2="22.3" y2="21.2"/>
		
			<line style="fill:none;stroke:#145F93;stroke-width:2;stroke-linecap:round;stroke-linejoin:round;stroke-miterlimit:10;" x1="22.3" y1="14.7" x2="22.3" y2="13.1"/>
		
			<line style="fill:none;stroke:#145F93;stroke-width:2;stroke-linecap:round;stroke-linejoin:round;stroke-miterlimit:10;" x1="22.3" y1="46.4" x2="22.3" y2="49"/>
		
			<line style="fill:none;stroke:#145F93;stroke-width:2;stroke-linecap:round;stroke-linejoin:round;stroke-miterlimit:10;" x1="35.4" y1="17.5" x2="33.5" y2="19.3"/>
		
			<line style="fill:none;stroke:#145F93;stroke-width:2;stroke-linecap:round;stroke-linejoin:round;stroke-miterlimit:10;" x1="11.1" y1="41.8" x2="9.3" y2="43.6"/>
		
			<line style="fill:none;stroke:#145F93;stroke-width:2;stroke-linecap:round;stroke-linejoin:round;stroke-miterlimit:10;" x1="40.8" y1="30.6" x2="38.2" y2="30.6"/>
		
			<line style="fill:none;stroke:#145F93;stroke-width:2;stroke-linecap:round;stroke-linejoin:round;stroke-miterlimit:10;" x1="35.4" y1="43.6" x2="33.5" y2="41.8"/>
		
			<line style="fill:none;stroke:#145F93;stroke-width:2;stroke-linecap:round;stroke-linejoin:round;stroke-miterlimit:10;" x1="11.1" y1="19.3" x2="9.3" y2="17.5"/>
	</g>
	
		<line style="fill:none;stroke:#145F93;stroke-width:2;stroke-linecap:round;stroke-linejoin:round;stroke-miterlimit:10;" x1="38.1" y1="11.9" x2="33.9" y2="16.1"/>
	
		<line style="fill:none;stroke:#145F93;stroke-width:2;stroke-linecap:round;stroke-linejoin:round;stroke-miterlimit:10;" x1="10.8" y1="16.1" x2="6.6" y2="11.9"/>
	<path style="fill:none;stroke:#145F93;stroke-width:2;stroke-linecap:round;stroke-linejoin:round;stroke-miterlimit:10;" d="
		M34.2,8c2.2-2.2,5.7-2.2,7.9,0c2.2,2.2,2.2,5.7,0,7.9L34.2,8z"/>
	<path style="fill:none;stroke:#145F93;stroke-width:2;stroke-linecap:round;stroke-linejoin:round;stroke-miterlimit:10;" d="
		M10.5,8C8.3,5.8,4.8,5.8,2.6,8s-2.2,5.7,0,7.9L10.5,8z"/>
	
		<line style="fill:none;stroke:#145F93;stroke-width:2;stroke-linecap:round;stroke-linejoin:round;stroke-miterlimit:10;" x1="6.5" y1="30.6" x2="3.9" y2="30.6"/>
	<path style="fill:none;stroke:#145F93;stroke-width:2;stroke-linecap:round;stroke-linejoin:round;stroke-miterlimit:10;" d="
		M24.7,8.6v3.7c-0.8-0.1-1.5-0.2-2.3-0.2c-0.8,0-1.6,0-2.3,0.2V8.6c0.1,0.1,0.3,0.2,0.5,0.3c0.6,0.3,1.2,0.4,1.9,0.4
		c0.7,0,1.3-0.2,1.9-0.4C24.4,8.8,24.5,8.7,24.7,8.6z"/>
	<path style="fill:none;stroke:#145F93;stroke-width:2;stroke-linecap:round;stroke-linejoin:round;stroke-miterlimit:10;" d="
		M26.5,5.2c0,1.4-0.7,2.7-1.8,3.5c-0.1,0.1-0.3,0.2-0.5,0.3c-0.6,0.3-1.2,0.4-1.9,0.4c-0.7,0-1.3-0.2-1.9-0.4
		c-0.2-0.1-0.3-0.2-0.5-0.3c-1.1-0.7-1.8-2-1.8-3.5C18.2,2.9,20,1,22.3,1C24.6,1,26.5,2.9,26.5,5.2z"/>
</g>
</svg>
