<?xml version="1.0" encoding="utf-8"?>
<!-- Generator: Adobe Illustrator 22.1.0, SVG Export Plug-In . SVG Version: 6.00 Build 0)  -->
<svg version="1.1" id="Layer_1" xmlns="http://www.w3.org/2000/svg" xmlns:xlink="http://www.w3.org/1999/xlink" x="0px" y="0px"
	 viewBox="0 0 49.9 50" style="enable-background:new 0 0 49.9 50;" xml:space="preserve">
<g>
	<g>
		<g>
			<path fill="#145F93" d="M39.4,18.3h-15c-1.3,0-2.3-1-2.3-2.3V1c0-0.4,0.2-0.8,0.6-0.9c0.4-0.2,0.8-0.1,1.1,0.2l16.3,16.3
				c0.3,0.3,0.4,0.7,0.2,1.1C40.2,18.1,39.8,18.3,39.4,18.3z M24.1,3.4V16c0,0.2,0.1,0.3,0.3,0.3H37L24.1,3.4z"/>
		</g>
		<g>
			<path fill="#145F93" d="M17.8,9H5C4.4,9,4,8.6,4,8s0.4-1,1-1h12.8c0.6,0,1,0.4,1,1S18.4,9,17.8,9z"/>
		</g>
		<g>
			<path fill="#145F93" d="M17.8,17.4H5c-0.6,0-1-0.4-1-1s0.4-1,1-1h12.8c0.6,0,1,0.4,1,1S18.4,17.4,17.8,17.4z"/>
		</g>
		<g>
			<path fill="#145F93" d="M24.1,25.8H5c-0.6,0-1-0.4-1-1s0.4-1,1-1h19.1c0.6,0,1,0.4,1,1S24.7,25.8,24.1,25.8z"/>
		</g>
		<g>
			<path fill="#145F93" d="M24.1,34.1H5c-0.6,0-1-0.4-1-1s0.4-1,1-1h19.1c0.6,0,1,0.4,1,1S24.7,34.1,24.1,34.1z"/>
		</g>
	</g>
	<g>
		<path fill="#145F93" d="M45.3,46.5c-0.2,0-0.4-0.1-0.6-0.2l-5.3-3.8l-5.3,3.8c-0.4,0.3-0.8,0.3-1.2,0c-0.4-0.3-0.5-0.7-0.4-1.1l2-6.2l-5.3-3.8
			C29,34.9,28.8,34.5,29,34s0.5-0.7,1-0.7h6.5l2-6.2c0.1-0.4,0.5-0.7,1-0.7l0,0c0.4,0,0.8,0.3,1,0.7l2,6.2h6.5c0.4,0,0.8,0.3,1,0.7
			s0,0.9-0.4,1.1L44.2,39l2,6.2c0.1,0.4,0,0.9-0.4,1.1C45.7,46.5,45.5,46.5,45.3,46.5z M33,35.4l3.4,2.5c0.4,0.3,0.5,0.7,0.4,1.1
			l-1.3,4l3.4-2.5c0.4-0.3,0.8-0.3,1.2,0l3.4,2.5l-1.3-4c-0.1-0.4,0-0.9,0.4-1.1l3.4-2.5h-4.2c-0.4,0-0.8-0.3-1-0.7l-1.3-4l-1.3,4
			c-0.1,0.4-0.5,0.7-1,0.7H33z"/>
	</g>
	<g>
		<path fill="#145F93" d="M38.1,50H2.3C1,50,0,49,0,47.7V2.3C0,1,1,0,2.3,0h20.8c0.3,0,0.5,0.1,0.7,0.3l16.3,16.3c0.2,0.2,0.3,0.4,0.3,0.7v10.1
			c0,0.1,0,0.2,0,0.3l-2.2,6.9c-0.1,0.4-0.5,0.7-1,0.7H33l3.4,2.5c0.4,0.3,0.5,0.7,0.4,1.1l-1.3,4l3.4-2.5c0.3-0.2,0.7-0.3,1-0.1
			c0.3,0.2,0.5,0.5,0.5,0.9v6.4C40.4,49,39.4,50,38.1,50z M2.3,2C2.1,2,2,2.1,2,2.3v45.4C2,47.9,2.1,48,2.3,48h35.8
			c0.2,0,0.3-0.1,0.3-0.3v-4.5l-4.3,3.1c-0.4,0.3-0.8,0.3-1.2,0c-0.4-0.3-0.5-0.7-0.4-1.1l2-6.2l-5.3-3.8C29,34.9,28.8,34.5,29,34
			s0.5-0.7,1-0.7h6.5l2-6.1v-9.6L22.7,2H2.3z"/>
	</g>
</g>
</svg>
