<?xml version="1.0" encoding="utf-8"?>
<!-- Generator: Adobe Illustrator 22.1.0, SVG Export Plug-In . SVG Version: 6.00 Build 0)  -->
<svg version="1.1" id="Layer_1" xmlns="http://www.w3.org/2000/svg" xmlns:xlink="http://www.w3.org/1999/xlink" x="0px" y="0px"
	 viewBox="0 0 46.6 50" style="enable-background:new 0 0 46.6 50;" xml:space="preserve">
<g>
	<g>
		<g>
			<path fill="#145F93" d="M23.3,50c-0.1,0-0.2,0-0.4-0.1C9,44.5,0,32.2,0,18.8v-6.4c0-0.6,0.4-1,1-1c6.6,0,11.9-4.6,11.9-10.4c0-0.6,0.4-1,1-1
				h18.8c0.6,0,1,0.4,1,1c0,5.7,5.3,10.4,11.9,10.4c0.6,0,1,0.4,1,1v6.4c0,13.5-9,25.7-22.9,31.2C23.6,50,23.4,50,23.3,50z M2,13.3
				v5.4c0,12.5,8.4,23.9,21.3,29.2c13-5.2,21.3-16.6,21.3-29.2v-5.4C37.8,12.9,32.3,8.1,31.7,2H14.9C14.3,8.1,8.8,12.9,2,13.3z"/>
		</g>
	</g>
	<g>
		<path fill="#145F93" d="M20.1,31.8c-0.3,0-0.5-0.1-0.7-0.3l-5.2-5.2c-0.4-0.4-0.4-1,0-1.4s1-0.4,1.4,0l4.4,4.4l10.8-10.8c0.4-0.4,1-0.4,1.4,0
			s0.4,1,0,1.4L20.8,31.5C20.6,31.7,20.4,31.8,20.1,31.8z"/>
	</g>
</g>
</svg>
