<?xml version="1.0" encoding="utf-8"?>
<!-- Generator: Adobe Illustrator 22.1.0, SVG Export Plug-In . SVG Version: 6.00 Build 0)  -->
<svg version="1.1" id="Layer_1" xmlns="http://www.w3.org/2000/svg" xmlns:xlink="http://www.w3.org/1999/xlink" x="0px" y="0px"
	 viewBox="0 0 37.6 50.1" style="enable-background:new 0 0 37.6 50.1;" xml:space="preserve">
<g>
	<g>
		<path d="M36.6,50.1H1c-0.6,0-1-0.4-1-1V31.3c0-4.9,4-8.8,8.8-8.8h20c4.9,0,8.8,4,8.8,8.8v17.8C37.6,49.7,37.2,50.1,36.6,50.1z
			 M2,48.1h33.6V31.3c0-3.8-3.1-6.8-6.8-6.8h-20c-3.8,0-6.8,3.1-6.8,6.8V48.1z"/>
	</g>
	<g>
		<path d="M18.8,18.5c-5.1,0-9.2-4.1-9.2-9.2S13.7,0,18.8,0S28,4.1,28,9.2S23.9,18.5,18.8,18.5z M18.8,2c-4,0-7.2,3.2-7.2,7.2
			s3.2,7.2,7.2,7.2S26,13.2,26,9.2S22.8,2,18.8,2z"/>
	</g>
</g>
</svg>
